<?xml version="1.0" ?>
<!DOCTYPE svg  PUBLIC '-//W3C//DTD SVG 1.1//EN'  'http://www.w3.org/Graphics/SVG/1.1/DTD/svg11.dtd'>
<!-- Uploaded to: SVG Repo, www.svgrepo.com, Generator: SVG Repo Mixer Tools -->
<svg fill="#000000" width="800px" height="800px" viewBox="0 0 2.33333 2.33333" style="shape-rendering:geometricPrecision; text-rendering:geometricPrecision; image-rendering:optimizeQuality; fill-rule:evenodd; clip-rule:evenodd" xml:space="preserve" xmlns="http://www.w3.org/2000/svg" xmlns:xlink="http://www.w3.org/1999/xlink">
<defs>
<style type="text/css">
   <![CDATA[
    .fil0 {fill:black;fill-rule:nonzero}
   ]]>
  </style>
</defs>
<g id="Layer_x0020_1">
<path class="fil0" d="M1.00517 0.338413c-0.0033622,-0.0126654 0.00614567,-0.0252559 0.0198386,-0.0250827l0.283827 0c0.012937,0 0.023248,0.0121693 0.0189291,0.0264685l-0.0391299 0.148693 4.72441e-005 1.1811e-005c-0.0023937,0.00909449 -0.0106811,0.0150709 -0.019685,0.0149094l-0.205012 0c-0.00977953,0 -0.0179213,-0.00702362 -0.0196575,-0.0162992l-0.0391575 -0.148701zm0.277772 0.0149173l-0.232559 0 0.0289724 0.110083 0.174614 0 0.0289724 -0.110083zm0.0458937 0.303858l0 0.264512c0.403366,0.12161 0.535429,0.633102 0.234567,0.933965 -0.21911,0.21911 -0.57437,0.21911 -0.79348,0 -0.300831,-0.300831 -0.168854,-0.812311 0.234567,-0.933965l0 -0.264512c0,-0.0110433 0.00895669,-0.02 0.02,-0.02l0.284346 0c0.0110433,0 0.02,0.00895669 0.02,0.02zm-0.299106 0.298866c-0.383965,0.104287 -0.515134,0.587717 -0.231524,0.871327 0.203488,0.203488 0.533425,0.203488 0.736913,0 0.184394,-0.184394 0.204268,-0.477213 0.0459331,-0.684472 -0.0683937,-0.0895236 -0.165193,-0.15624 -0.276953,-0.186717 -0.00875591,-0.00212992 -0.0152638,-0.0100236 -0.0152638,-0.0194331l0 -0.259571 -0.244346 0 0 0.259571c7.87402e-006,0.00880709 -0.00585039,0.0168819 -0.0147598,0.0192953z"/>
<path class="fil0" d="M1.01263 0.463413l0.308059 0c0.0991654,0 0.141354,0.122575 0.0742795,0.183528 -0.0192598,0.0186929 -0.0454882,0.030248 -0.0742795,0.030248l-0.308059 0c-0.094063,0 -0.143122,-0.114776 -0.0755039,-0.182394 0.0193583,-0.0193583 0.0460906,-0.0313819 0.0755039,-0.0313819zm0.308059 0.04l-0.308059 0c-0.0585866,0 -0.0897441,0.0715866 -0.0472205,0.11411 0.0121299,0.0121299 0.0288504,0.0196654 0.0472205,0.0196654l0.308059 0c0.058874,0 0.0895472,-0.0717835 0.0472205,-0.11411 -0.0121299,-0.0121299 -0.0288504,-0.0196654 -0.0472205,-0.0196654z"/>
<path class="fil0" d="M1.48567 1.26925c-0.210209,-0.0956614 -0.430303,0.147846 -0.658402,0.039563 -0.107327,0.241776 0.0687913,0.521106 0.339402,0.521106 0.290055,0 0.464276,-0.316787 0.319,-0.560669zm-0.657799 -0.00507087c0.108618,0.0608858 0.220669,0.0247362 0.332709,-0.0114055 0.114287,-0.0368701 0.228587,-0.0737244 0.346213,-0.0176929 0.0201063,0.00866929 0.0491102,0.0896969 0.0553386,0.111701 0.074,0.261382 -0.122142,0.523138 -0.395461,0.523138 -0.296728,0 -0.506173,-0.30922 -0.366752,-0.596646 0.00529134,-0.0109094 0.0179134,-0.0147402 0.0279528,-0.00909449z"/>
<path class="fil0" d="M0.986854 1.43802c0.0422323,0.038622 0.0167992,0.120441 -0.0498425,0.120441 -0.0624567,0 -0.0942795,-0.0760433 -0.0498858,-0.120437 0.0275236,-0.0275236 0.072063,-0.0275748 0.0997283,-3.93701e-006zm-0.0281969 0.028252c-0.0291535,-0.0291535 -0.0717441,0.0164055 -0.0432559,0.0432402l-3.93701e-005 3.93701e-005c0.0291535,0.0291535 0.0717441,-0.0164055 0.0432559,-0.0432402l3.93701e-005 -3.93701e-005z"/>
<path class="fil0" d="M1.18671 1.70271c-0.0486457,0.0538386 -0.154654,0.0222126 -0.154654,-0.0640236 0,-0.080252 0.0976496,-0.121059 0.15465,-0.0640591 0.0353622,0.0353622 0.0354016,0.0925827 3.93701e-006,0.128083zm-0.0282874 -0.0997992c-0.0197047,-0.0197047 -0.0517205,-0.0198268 -0.0715472,0l-4.33071e-005 -3.93701e-005c-0.0470748,0.0471772 0.0244882,0.118697 0.0715906,0.0715945l4.33071e-005 3.93701e-005c0.019689,-0.0197283 0.0197323,-0.0518189 -4.33071e-005,-0.0715945z"/>
<path class="fil0" d="M1.33269 1.36507c0.0889646,0 0.133791,0.108071 0.0708386,0.171024 -0.0630669,0.0630669 -0.171024,0.0179016 -0.171024,-0.0708425 0,-0.0553268 0.0448543,-0.100181 0.100185,-0.100181zm0.0425551 0.057626c-0.0560827,-0.0560827 -0.141138,0.0290906 -0.0851142,0.0851142 0.0560551,0.0560551 0.141169,-0.0290591 0.0851142,-0.0851142z"/>
</g>
</svg>